<svg xmlns="http://www.w3.org/2000/svg" width="24" height="24" fill="none"><path fill="#3783F5" d="M14 14c.3 0 .5-.1.7-.3.2-.2.3-.4.3-.7v-2h2c.3 0 .5-.1.7-.3.2-.2.3-.4.3-.7a1 1 0 0 0-.3-.7A1 1 0 0 0 17 9h-2V7a1 1 0 0 0-.3-.7A1 1 0 0 0 14 6a1 1 0 0 0-.7.3 1 1 0 0 0-.3.7v2h-2a1 1 0 0 0-.7.3 1 1 0 0 0-.3.7c0 .3.1.5.3.7.2.2.4.3.7.3h2v2c0 .3.1.5.3.7.2.2.4.3.7.3Zm-6 4a2 2 0 0 1-1.4-.6A2 2 0 0 1 6 16V4c0-.5.2-1 .6-1.4A2 2 0 0 1 8 2h12c.6 0 1 .2 1.4.6.4.4.6.9.6 1.4v12c0 .6-.2 1-.6 1.4a2 2 0 0 1-1.4.6H8Zm-4 4a2 2 0 0 1-1.4-.6A2 2 0 0 1 2 20V7c0-.3.1-.5.3-.7.2-.2.4-.3.7-.3.3 0 .5.1.7.3.2.2.3.4.3.7v13h13c.3 0 .5.1.7.3.2.2.3.4.3.7a1 1 0 0 1-1 1H4Z"/></svg>