<svg width="22" height="23" viewBox="0 0 22 23" fill="none" xmlns="http://www.w3.org/2000/svg">
<path d="M1 21C1 17.13 4.98279 14 9.88624 14C10.9621 14 11.9966 14.15 12.9586 14.43M15.0586 6C15.0586 8.76142 12.7429 11 9.88624 11C7.02959 11 4.71382 8.76142 4.71382 6C4.71382 3.23858 7.02959 1 9.88624 1C12.7429 1 15.0586 3.23858 15.0586 6Z" stroke="white" stroke-width="2" stroke-linecap="round" stroke-linejoin="round"/>
<path d="M17.2069 17.9583C17.0626 17.9567 16.9212 17.9979 16.8017 18.0763C16.6823 18.1547 16.5906 18.2666 16.539 18.3969C16.4873 18.5272 16.4782 18.6697 16.5129 18.8051C16.5475 18.9406 16.6243 19.0626 16.7328 19.1546V19.7917C16.7328 19.9132 16.7827 20.0298 16.8717 20.1158C16.9606 20.2017 17.0812 20.25 17.2069 20.25C17.3327 20.25 17.4533 20.2017 17.5422 20.1158C17.6311 20.0298 17.6811 19.9132 17.6811 19.7917V19.1546C17.7896 19.0626 17.8663 18.9406 17.901 18.8051C17.9356 18.6697 17.9265 18.5272 17.8749 18.3969C17.8232 18.2666 17.7315 18.1547 17.6121 18.0763C17.4927 17.9979 17.3513 17.9567 17.2069 17.9583ZM19.5776 16.125V15.2083C19.5776 14.6006 19.3278 14.0177 18.8833 13.5879C18.4387 13.1581 17.8357 12.9167 17.2069 12.9167C16.5782 12.9167 15.9752 13.1581 15.5306 13.5879C15.086 14.0177 14.8362 14.6006 14.8362 15.2083V16.125C14.459 16.125 14.0972 16.2699 13.8304 16.5277C13.5637 16.7856 13.4138 17.1353 13.4138 17.5V20.7083C13.4138 21.073 13.5637 21.4227 13.8304 21.6806C14.0972 21.9385 14.459 22.0833 14.8362 22.0833H19.5776C19.9549 22.0833 20.3167 21.9385 20.5834 21.6806C20.8502 21.4227 21 21.073 21 20.7083V17.5C21 17.1353 20.8502 16.7856 20.5834 16.5277C20.3167 16.2699 19.9549 16.125 19.5776 16.125ZM15.7845 15.2083C15.7845 14.8437 15.9344 14.4939 16.2011 14.2361C16.4679 13.9782 16.8297 13.8333 17.2069 13.8333C17.5842 13.8333 17.946 13.9782 18.2127 14.2361C18.4795 14.4939 18.6293 14.8437 18.6293 15.2083V16.125H15.7845V15.2083ZM20.0517 20.7083C20.0517 20.8299 20.0018 20.9465 19.9129 21.0324C19.824 21.1184 19.7034 21.1667 19.5776 21.1667H14.8362C14.7105 21.1667 14.5899 21.1184 14.501 21.0324C14.412 20.9465 14.3621 20.8299 14.3621 20.7083V17.5C14.3621 17.3784 14.412 17.2619 14.501 17.1759C14.5899 17.09 14.7105 17.0417 14.8362 17.0417H19.5776C19.7034 17.0417 19.824 17.09 19.9129 17.1759C20.0018 17.2619 20.0517 17.3784 20.0517 17.5V20.7083Z" fill="white" stroke="white" stroke-width="0.5"/>
</svg>
