<svg xmlns="http://www.w3.org/2000/svg" width="22" height="23" fill="none"><path stroke="#3783F5" stroke-linecap="round" stroke-linejoin="round" stroke-width="2" d="M1 21c0-3.87 3.98-7 8.89-7a11 11 0 0 1 3.07.43M15.06 6c0 2.76-2.32 5-5.17 5A5.09 5.09 0 0 1 4.7 6c0-2.76 2.32-5 5.18-5a5.09 5.09 0 0 1 5.17 5Z"/><path fill="#3783F5" stroke="#3783F5" stroke-width=".5" d="M17.2 17.96a.72.72 0 0 0-.4.12.69.69 0 0 0-.26.32.66.66 0 0 0 .2.75v.64c0 .12.04.24.13.33a.48.48 0 0 0 .67 0c.1-.09.14-.2.14-.33v-.64c.11-.09.19-.2.22-.34a.66.66 0 0 0-.03-.41.69.69 0 0 0-.26-.32.72.72 0 0 0-.4-.12Zm2.38-1.84v-.91c0-.6-.25-1.2-.7-1.62a2.41 2.41 0 0 0-3.35 0c-.44.43-.7 1.01-.7 1.62v.91c-.37 0-.73.15-1 .4-.27.27-.42.62-.42.98v3.2c0 .37.15.72.42.98s.63.4 1 .4h4.75c.37 0 .74-.14 1-.4.27-.26.42-.6.42-.97V17.5c0-.36-.15-.71-.42-.97-.26-.26-.63-.4-1-.4Zm-3.8-.91c0-.37.15-.72.42-.97a1.45 1.45 0 0 1 2.01 0c.27.25.42.6.42.97v.91h-2.85v-.91Zm4.27 5.5c0 .12-.05.24-.14.32a.48.48 0 0 1-.33.14h-4.74a.48.48 0 0 1-.34-.14.45.45 0 0 1-.14-.32V17.5c0-.12.05-.24.14-.32a.48.48 0 0 1 .34-.14h4.74c.12 0 .24.05.33.14.1.08.14.2.14.32v3.2Z"/></svg>