<svg xmlns="http://www.w3.org/2000/svg" width="24" height="24" fill="none"><path fill="#3783F5" fill-rule="evenodd" d="M22.24 3.04a.9.9 0 0 0-1.28-1.28l-19.2 19.2a.9.9 0 1 0 1.28 1.28l3.41-3.42c1.64.77 3.53 1.28 5.55 1.28a13.65 13.65 0 0 0 10.7-5.45 4.9 4.9 0 0 0 1-2.65c0-.87-.42-1.8-1-2.65a11.87 11.87 0 0 0-3.51-3.26l3.05-3.05Zm-4.36 4.35-2.13 2.13a4.5 4.5 0 0 1-6.23 6.23l-1.7 1.7c1.32.55 2.74.84 4.18.85a11.85 11.85 0 0 0 9.21-4.68c.5-.72.69-1.29.69-1.62 0-.33-.18-.9-.69-1.62A10.1 10.1 0 0 0 19.1 8.2c-.38-.28-.78-.56-1.21-.82Zm-7.05 7.05a2.7 2.7 0 0 0 3.6-3.6l-3.6 3.6Z" clip-rule="evenodd"/><path fill="#3783F5" d="M12 3.9c1.24 0 2.43.2 3.54.52a.3.3 0 0 1 .12.49l-.99.99a.3.3 0 0 1-.28.08A10.8 10.8 0 0 0 12 5.7a11.85 11.85 0 0 0-9.21 4.68c-.5.72-.69 1.29-.69 1.62 0 .33.18.9.69 1.62a9.7 9.7 0 0 0 1.78 1.9.3.3 0 0 1 .03.45l-.85.85a.3.3 0 0 1-.4.02 11.4 11.4 0 0 1-2.04-2.19C.72 13.8.3 12.87.3 12c0-.87.42-1.8 1-2.65A13.66 13.66 0 0 1 12 3.9Z"/><path fill="#3783F5" d="M12 7.5c.14 0 .28 0 .42.02.24.02.32.3.16.47l-1.46 1.46a2.71 2.71 0 0 0-1.67 1.67l-1.46 1.46c-.17.16-.45.08-.47-.16A4.5 4.5 0 0 1 12 7.5Z"/></svg>