<svg xmlns="http://www.w3.org/2000/svg" width="24" height="24" fill="none"><path fill="#3783F5" fill-rule="evenodd" d="M7.5 12a4.5 4.5 0 1 1 9 0 4.5 4.5 0 0 1-9 0ZM12 9.3a2.7 2.7 0 1 0 0 5.4 2.7 2.7 0 0 0 0-5.4Z" clip-rule="evenodd"/><path fill="#3783F5" fill-rule="evenodd" d="M2.79 10.38c-.5.72-.69 1.29-.69 1.62 0 .33.18.9.69 1.62A11.85 11.85 0 0 0 12 18.3a11.85 11.85 0 0 0 9.21-4.68c.5-.72.69-1.29.69-1.62 0-.33-.18-.9-.69-1.62A11.85 11.85 0 0 0 12 5.7a11.85 11.85 0 0 0-9.21 4.68Zm1.02-3.6A13.66 13.66 0 0 1 12 3.9a13.65 13.65 0 0 1 10.7 5.45c.58.85 1 1.78 1 2.65 0 .87-.42 1.8-1 2.65A13.65 13.65 0 0 1 12 20.1a13.65 13.65 0 0 1-10.7-5.45C.73 13.8.3 12.87.3 12c0-.87.42-1.8 1-2.65.62-.88 1.48-1.76 2.51-2.56Z" clip-rule="evenodd"/></svg>