<svg xmlns="http://www.w3.org/2000/svg" width="145" height="58" fill="none"><rect width="144" height="57" x=".21" y=".17" fill="#fff" rx="15"/><path fill="#3783F5" d="M24.76 41.67v-4.8h5.33c1.01 0 1.8-.27 2.38-.82.6-.58.9-1.32.9-2.23 0-.6-.13-1.13-.4-1.59a2.51 2.51 0 0 0-1.15-1.08 3.54 3.54 0 0 0-1.73-.4h-5.33v-4.64h4.94c.84 0 1.52-.2 2.05-.6.55-.44.83-1.1.83-1.99 0-.89-.28-1.53-.83-1.94a3.14 3.14 0 0 0-2.05-.65h-4.94v-4.79h6.48c1.59 0 2.96.3 4.1.9a6.36 6.36 0 0 1 3.64 5.83c0 1.7-.58 3.12-1.76 4.25-1.15 1.1-2.83 1.8-5.04 2.05v-2.16c2.45.3 4.32 1.08 5.62 2.38a6.47 6.47 0 0 1 1.94 4.82 7 7 0 0 1-1.08 3.86 7.5 7.5 0 0 1-3.06 2.62c-1.3.65-2.83.98-4.6.98h-6.24Zm-5.1 0V16.14h6.33v25.53h-6.34Zm31.65.4c-1.9 0-3.59-.4-5.08-1.2a9.45 9.45 0 0 1-3.49-3.3c-.86-1.42-1.3-3-1.3-4.76a8.76 8.76 0 0 1 4.8-7.96 10.3 10.3 0 0 1 5.03-1.22c1.88 0 3.54.4 5 1.22a9.1 9.1 0 0 1 3.54 3.28 8.58 8.58 0 0 1 1.3 4.68 9.1 9.1 0 0 1-4.79 8.06c-1.47.8-3.14 1.2-5.01 1.2Zm-.04-5.59c.7 0 1.3-.14 1.8-.43.53-.31.94-.74 1.23-1.3.29-.55.43-1.18.43-1.9s-.16-1.35-.47-1.88a3.02 3.02 0 0 0-1.19-1.26c-.5-.3-1.1-.46-1.8-.46-.67 0-1.27.15-1.8.46-.52.32-.93.75-1.22 1.3a3.85 3.85 0 0 0-.43 1.87c0 .7.14 1.32.43 1.87.29.56.7.99 1.22 1.3a3.7 3.7 0 0 0 1.8.43Zm21 5.58c-1.9 0-3.6-.4-5.08-1.19a9.45 9.45 0 0 1-3.5-3.3c-.86-1.42-1.3-3-1.3-4.76a8.76 8.76 0 0 1 4.8-7.96 10.3 10.3 0 0 1 5.04-1.22c1.87 0 3.54.4 5 1.22a9.1 9.1 0 0 1 3.53 3.28 8.58 8.58 0 0 1 1.3 4.68 9.1 9.1 0 0 1-4.79 8.06c-1.47.8-3.14 1.2-5 1.2Zm-.04-5.58c.7 0 1.3-.14 1.8-.43.53-.31.93-.74 1.22-1.3.29-.55.43-1.18.43-1.9s-.15-1.35-.47-1.88a3.02 3.02 0 0 0-1.18-1.26c-.5-.3-1.1-.46-1.8-.46-.67 0-1.28.15-1.8.46-.53.32-.94.75-1.23 1.3a3.85 3.85 0 0 0-.43 1.87c0 .7.15 1.32.43 1.87.3.56.7.99 1.23 1.3a3.7 3.7 0 0 0 1.8.43Zm23.61 5.19-5.54-9.22 5.5-8.39h6.88l-6.84 9.47.18-2.3 7.02 10.44h-7.2Zm-11.3 0V15.42h6.26v26.25h-6.26Zm19.62 0v-17.6h6.3v17.6h-6.3ZM107.29 22c-.94 0-1.72-.31-2.34-.94a3.34 3.34 0 0 1-.94-2.4c0-.94.31-1.74.94-2.38.62-.65 1.4-.98 2.34-.98a3.3 3.3 0 0 1 3.31 3.35c0 .96-.31 1.77-.94 2.41-.6.63-1.39.94-2.37.94Zm9.23 19.66V16.79h6.26v24.88h-6.26Zm-3.89-12.39v-5.22h14.04v5.22h-14.04Z"/></svg>