<svg xmlns="http://www.w3.org/2000/svg" width="24" height="24" fill="none"><path stroke="#3783F5" stroke-linecap="round" stroke-linejoin="round" stroke-width="1.5" d="M5 20.3c0 .4.3.7.8.7h10.6c1.2 0 1.6-.4 1.6-1.6V18M5 20.3A2.3 2.3 0 0 1 7.3 18H18M5 20.3V6.2c0-1.1 0-2.4 1-3C6.6 3 7 3 8.3 3h9.2c1.2 0 1.6.4 1.6 1.6v11.8c0 1-.3 1.4-1 1.6"/><path stroke="#3783F5" stroke-linecap="round" stroke-linejoin="round" stroke-width="1.5" d="M15 14c0-3.9-6-3.9-6 0"/><path stroke="#3783F5" stroke-linecap="round" stroke-linejoin="round" stroke-width="1.5" d="M12 11a2 2 0 1 0 0-4 2 2 0 0 0 0 4Z"/></svg>