<svg xmlns="http://www.w3.org/2000/svg" width="24" height="24" fill="none"><path fill="#7B7B7B" fill-rule="evenodd" d="M5 4.8h.3l.3.2.3.4.1.4.8 11.5c0 .6.3 1.1.7 1.5.4.4.8.6 1.3.6h6.4c.5 0 1-.2 1.3-.6.4-.4.6-1 .7-1.5L18 5.8c0-.3.2-.6.4-.8.2-.2.4-.3.7-.2.2 0 .5.1.7.4l.2.8-.9 11.5c0 1.1-.5 2.2-1.2 3-.8.7-1.7 1.1-2.7 1.1H8.8c-1 0-2-.4-2.7-1.2A4.7 4.7 0 0 1 5 17.5L4 6a1.3 1.3 0 0 1 .2-.9l.3-.2.4-.1Z" clip-rule="evenodd"/><path fill="#7B7B7B" fill-rule="evenodd" d="M3 5.9c0-.3.1-.6.3-.8.2-.2.4-.3.7-.3h16c.3 0 .5 0 .7.3.2.2.3.5.3.8 0 .3-.1.6-.3.8a1 1 0 0 1-.7.3H4a1 1 0 0 1-.7-.3C3 6.5 3 6.2 3 5.9ZM10 8c.3 0 .5.1.7.4.2.2.3.5.3.8V16c0 .3-.1.6-.3.8a1 1 0 0 1-.7.3 1 1 0 0 1-.7-.3c-.2-.2-.3-.5-.3-.8V9.2c0-.2.1-.5.3-.7.2-.3.4-.4.7-.4Zm4 0c.3 0 .5.1.7.4.2.2.3.5.3.8v4.4c0 .3-.1.6-.3.8a1 1 0 0 1-.7.4 1 1 0 0 1-.7-.4c-.2-.2-.3-.5-.3-.8V9.3c0-.3.1-.6.3-.8.2-.3.4-.4.7-.4Z" clip-rule="evenodd"/><path fill="#7B7B7B" fill-rule="evenodd" d="M10.4 3.6a1 1 0 0 0-.5.2l-.4.6-.6 1.8c0 .3-.2.5-.5.7h-.7a1 1 0 0 1-.6-.5v-.9l.5-1.8c.2-.7.6-1.3 1-1.7.6-.4 1.2-.6 1.8-.6h3.2c.6 0 1.2.2 1.7.6.5.4.9 1 1.1 1.7l.5 1.8a1.3 1.3 0 0 1 0 .9l-.2.3a1 1 0 0 1-.4.2.9.9 0 0 1-.7 0c-.3-.2-.5-.4-.5-.7l-.6-1.8c0-.2-.2-.4-.4-.6a1 1 0 0 0-.5-.2h-3.2Z" clip-rule="evenodd"/></svg>