<svg xmlns="http://www.w3.org/2000/svg" width="24" height="24" fill="none"><mask id="a" width="17" height="17" x="3" y="4" maskUnits="userSpaceOnUse" style="mask-type:luminance"><path fill="#fff" d="M3 4h17v17H3V4Z"/><path fill="#000" d="m13.59 7.41-7.2 7.2c-.2.2-.29.29-.36.4-.06.13-.1.26-.16.53l-.67 2.65c-.09.36-.13.54-.03.64.1.1.28.06.64-.03l2.65-.67c.27-.06.4-.1.52-.16.12-.07.22-.17.41-.36l7.2-7.2c.66-.66 1-1 1-1.41 0-.41-.34-.75-1-1.41l-.18-.18c-.66-.66-1-1-1.41-1-.41 0-.75.34-1.41 1Z"/></mask><g mask="url(#a)"><path fill="#7B7B7B" d="m5.8 18.8-.48-1.94-.08.02-.09.03.66 1.89Zm0 0 .5 1.94.08-.02.08-.03-.65-1.9Zm2-2.78 7.2-7.2L12.17 6l-7.2 7.2 2.84 2.82Zm7.2-7.2.17.18L18 6.17 17.83 6 15 8.83Zm.17.18-7.2 7.2 2.84 2.82 7.19-7.2L15.17 9ZM3.93 15.05l-.67 2.66 3.88.97.67-2.66-3.88-.97Zm2.36 5.69 2.66-.66-.97-3.89-2.66.67.97 3.88ZM3.26 17.7c-.03.11-.1.42-.14.7-.03.32-.06 1.15.63 1.84l2.83-2.83a1.81 1.81 0 0 1 .52 1.38v.06l.04-.18-3.88-.97Zm2.06-.85-.18.04h.06c.06-.01.25-.02.5.03.3.07.62.22.88.49l-2.83 2.83c.69.68 1.52.66 1.83.63.29-.03.6-.11.71-.14l-.97-3.88Zm2.66-.67-.07.07-.09.09.01-.01a1.01 1.01 0 0 1 .17-.11l1.97 3.48c.4-.23.72-.57.84-.69L7.98 16.2Zm.97 3.88c.16-.04.6-.13 1.02-.36L8 16.23a1 1 0 0 1 .18-.09l-.05.01-.06.02-.1.02.98 3.88ZM15.17 9l.4.4.18.2c.02.03-.03-.02-.07-.13a1.2 1.2 0 0 1-.1-.47h4c0-.82-.35-1.43-.65-1.83-.27-.35-.64-.7-.93-1L15.17 9ZM18 11.83c.3-.3.66-.65.93-1 .3-.4.66-1.01.66-1.83h-4c0-.18.04-.34.09-.47.04-.1.08-.15.07-.13l-.18.2-.4.4L18 11.83Zm-3-3 .4-.4.2-.18a1.2 1.2 0 0 1-.6.16v-4c-.82 0-1.43.36-1.83.66-.35.27-.7.64-1 .93L15 8.83ZM17.83 6c-.3-.3-.65-.66-1-.93-.4-.3-1.01-.66-1.83-.66v4c-.18 0-.34-.04-.47-.09-.1-.04-.15-.08-.13-.07l.2.18.4.4L17.83 6ZM4.98 13.2c-.12.11-.46.42-.69.83L7.77 16a1 1 0 0 1-.1.17l.07-.08.07-.07-2.83-2.83Zm2.83 2.82.05-.2a1 1 0 0 1-.05.11l-.04.07-3.48-1.97c-.23.41-.32.86-.37 1.02l3.89.97Z"/></g><path fill="#7B7B7B" d="m12.5 7.5 3-2 3 3-2 3-4-4Z"/></svg>