<svg xmlns="http://www.w3.org/2000/svg" width="24" height="24" fill="none"><path fill="#9B9B9B" d="M12 17.2c.4 0 .7-.1 1-.4.2-.2.3-.5.3-.9v-2.6h2.6c.4 0 .7-.1 1-.4.2-.2.3-.5.3-.9s-.1-.7-.4-1c-.2-.2-.5-.3-.9-.3h-2.6V8.1c0-.4-.1-.7-.4-1-.2-.2-.5-.3-.9-.3s-.7.1-1 .4c-.2.2-.3.5-.3.9v2.6H8.1c-.4 0-.7.1-1 .4-.2.2-.3.5-.3.9s.1.7.4 1c.2.2.5.3.9.3h2.6v2.6c0 .4.1.7.4 1 .2.2.5.3.9.3Zm-7.8 5.2c-.7 0-1.3-.3-1.8-.8s-.8-1-.8-1.8V4.2c0-.7.3-1.3.8-1.8s1-.8 1.8-.8h15.6c.7 0 1.3.3 1.8.8s.8 1 .8 1.8v15.6c0 .7-.3 1.3-.8 1.8s-1 .8-1.8.8H4.2Z"/></svg>