<?xml version="1.0" encoding="utf-8"?>
<svg xmlns="http://www.w3.org/2000/svg" style="display: none;">
    <svg id="pdf-icon" viewBox="0 0 24 24" fill="none" xmlns="http://www.w3.org/2000/svg">
        <g clip-path="url(#a)">
            <path fill="#E72323" fill-rule="evenodd" d="M2.5.8C2.9.3 3.6 0 4.3 0h10.3c.2 0 .4 0 .6.3L22 7l.3.6v13.7a2.6 2.6 0 0 1-2.6 2.6H4.3a2.6 2.6 0 0 1-2.6-2.6V2.6c0-.7.3-1.4.8-1.8Zm8 5 .1 2.2c1.2 1.8 3.1 4.2 4.7 5.7h2c.4.2.9.4 1.2.8.3.5.3 1 .1 1.5-.1.5-.5.9-1 1h-1.3l-1.7-1.1c-1.7.2-3.9.8-5.4 1.4-.3.6-.5 1.2-.9 1.6a2 2 0 0 1-1 .7c-.5.2-1 0-1.4-.3-.3-.3-.6-.8-.6-1.4 0-.5.3-.9.6-1.1.3-.4.9-.8 1.5-1 .6-2 1-5 1-7.3l-.8-1.8c-.1-.3-.2-.7-.1-1.1 0-.4.3-1 .8-1.2.2 0 .5-.2.9-.1.3 0 .6.3.7.4l.5 1Zm-.1 5.6 2.3 2.7c-1 .1-2 .4-2.9.7.3-1 .5-2.3.6-3.4Z" clip-rule="evenodd"/>
        </g>
        <defs>
            <clipPath id="a">
                <path fill="#fff" d="M0 0h24v24H0z"/>
            </clipPath>
        </defs>
    </svg>
    <symbol id="star-icon" viewBox="0 0 24 24" xmlns="http://www.w3.org/2000/svg">
        <path d="M13.7 3.5 15.5 7c.2.5.9 1 1.4 1l3.2.6c2 .4 2.5 1.8 1 3.3l-2.4 2.5c-.4.4-.7 1.2-.6 1.8l.8 3c.5 2.5-.8 3.4-3 2.2l-3-1.8c-.5-.3-1.3-.3-1.9 0l-3 1.8c-2.1 1.2-3.4.3-2.9-2.1l.8-3.1c0-.6-.2-1.4-.6-1.8L3 11.9c-1.5-1.5-1-3 1-3.3l3.2-.5c.5-.1 1.2-.6 1.4-1l1.8-3.6c1-1.9 2.5-1.9 3.4 0Z" stroke="#3783F5" stroke-width="2" stroke-linecap="round" stroke-linejoin="round"/>
    </symbol>
    <symbol id="autor-icon" viewBox="0 0 24 24" fill="none" xmlns="http://www.w3.org/2000/svg">
        <path stroke="#7B7B7B" stroke-linecap="round" stroke-linejoin="round" stroke-width="2" d="M18.7 16.3c.3 1 1.1 1.9 2.2 2.2M3.4 22c0-3.9 3.9-7 8.6-7 1 0 2 .2 3 .4M17 7A5 5 0 1 1 7 7a5 5 0 0 1 10 0Zm2.2 8.7-3.5 3.6c-.2.1-.3.4-.3.6l-.2 1.3c0 .5.3.9.7.8l1.4-.2.6-.3 3.5-3.6c.6-.6 1-1.3 0-2.2-.9-.9-1.6-.6-2.2 0Z"/>
    </symbol>
    <symbol id="blueBook-icon" viewBox="0 0 24 24" fill="none" xmlns="http://www.w3.org/2000/svg">
        <path stroke="#3783F5" stroke-linecap="round" stroke-linejoin="round" stroke-width="2" d="M12 5.5v15m-4.3-12H5.5m3 3h-3M22 16.7v-12c0-1.2-1-2.1-2.2-2h0c-2.1.2-5.3 1.2-7.1 2.4h-.2c-.3.2-.7.2-1 0h-.3c-1.8-1.2-5-2.3-7-2.4a2 2 0 0 0-2.2 2v12a2 2 0 0 0 1.7 2H4c2.2.4 5.6 1.4 7.5 2.5h0c.3.2.7.2 1 0 1.9-1 5.3-2.1 7.4-2.4h.4a2 2 0 0 0 1.7-2Z"/>
    </symbol>
    <symbol id="grayBook-icon" viewBox="0 0 24 24" fill="none" xmlns="http://www.w3.org/2000/svg">
        <path stroke="#7B7B7B" stroke-linecap="round" stroke-linejoin="round" stroke-width="2" d="M12 5.5v15m-4.3-12H5.5m3 3h-3M22 16.7v-12c0-1.2-1-2.1-2.2-2h0c-2.1.2-5.3 1.2-7.1 2.4h-.2c-.3.2-.7.2-1 0h-.3c-1.8-1.2-5-2.3-7-2.4a2 2 0 0 0-2.2 2v12a2 2 0 0 0 1.7 2H4c2.2.4 5.6 1.4 7.5 2.5h0c.3.2.7.2 1 0 1.9-1 5.3-2.1 7.4-2.4h.4a2 2 0 0 0 1.7-2Z"/>
    </symbol>
    <symbol id="series-icon" viewBox="0 0 24 24" fill="none" xmlns="http://www.w3.org/2000/svg">
        <path stroke="#7B7B7B" stroke-linecap="round" stroke-linejoin="round" stroke-width="2" d="M12 8.1v9.6M9 22h6c5 0 7-2 7-7V9c0-5-2-7-7-7H9C4 2 2 4 2 9v6c0 5 2 7 7 7Zm9.4-6.7V7.6c0-.8-.6-1.3-1.4-1.3h0a12 12 0 0 0-4.6 1.5h0c-.2.2-.6.2-.7 0h-.2C10.4 7 8.3 6.4 7 6.3c-.8 0-1.4.5-1.4 1.3v7.7c0 .6.5 1.2 1.1 1.2H7c1.4.2 3.5 1 4.8 1.6h.6c1.2-.7 3.4-1.4 4.8-1.5h.2c.6-.1 1-.7 1-1.3Z"/>
    </symbol>
    <symbol id="bookmark-icon" viewBox="0 0 24 24" xmlns="http://www.w3.org/2000/svg">
        <path stroke="#3783F5" stroke-linecap="round" stroke-linejoin="round" stroke-width="2" d="m19 21-7-5-7 5V5a2 2 0 0 1 2-2h10a2 2 0 0 1 2 2v16Z"/>
    </symbol>
</svg>