<?xml version="1.0" encoding="utf-8"?>
<svg xmlns="http://www.w3.org/2000/svg" style="display: none;">
    <symbol id="pdf-icon" viewBox="0 0 24 24" fill="none" xmlns="http://www.w3.org/2000/svg">
        <g clip-path="url(#a)">
            <path fill="#E72323" fill-rule="evenodd" d="M2.5.8C2.9.3 3.6 0 4.3 0h10.3c.2 0 .4 0 .6.3L22 7l.3.6v13.7a2.6 2.6 0 0 1-2.6 2.6H4.3a2.6 2.6 0 0 1-2.6-2.6V2.6c0-.7.3-1.4.8-1.8Zm8 5 .1 2.2c1.2 1.8 3.1 4.2 4.7 5.7h2c.4.2.9.4 1.2.8.3.5.3 1 .1 1.5-.1.5-.5.9-1 1h-1.3l-1.7-1.1c-1.7.2-3.9.8-5.4 1.4-.3.6-.5 1.2-.9 1.6a2 2 0 0 1-1 .7c-.5.2-1 0-1.4-.3-.3-.3-.6-.8-.6-1.4 0-.5.3-.9.6-1.1.3-.4.9-.8 1.5-1 .6-2 1-5 1-7.3l-.8-1.8c-.1-.3-.2-.7-.1-1.1 0-.4.3-1 .8-1.2.2 0 .5-.2.9-.1.3 0 .6.3.7.4l.5 1Zm-.1 5.6 2.3 2.7c-1 .1-2 .4-2.9.7.3-1 .5-2.3.6-3.4Z" clip-rule="evenodd"/>
        </g>
        <defs>
            <clipPath id="a">
                <path fill="#fff" d="M0 0h24v24H0z"/>
            </clipPath>
        </defs>
    </symbol>
    <symbol id="star-icon" viewBox="0 0 24 24" fill="none" xmlns="http://www.w3.org/2000/svg">
        <path d="M13.7 3.5 15.5 7c.2.5.9 1 1.4 1l3.2.6c2 .4 2.5 1.8 1 3.3l-2.4 2.5c-.4.4-.7 1.2-.6 1.8l.8 3c.5 2.5-.8 3.4-3 2.2l-3-1.8c-.5-.3-1.3-.3-1.9 0l-3 1.8c-2.1 1.2-3.4.3-2.9-2.1l.8-3.1c0-.6-.2-1.4-.6-1.8L3 11.9c-1.5-1.5-1-3 1-3.3l3.2-.5c.5-.1 1.2-.6 1.4-1l1.8-3.6c1-1.9 2.5-1.9 3.4 0Z" stroke="#3783F5" stroke-width="2" stroke-linecap="round" stroke-linejoin="round"/>
    </symbol>
    <symbol id="autor-icon" viewBox="0 0 24 24" fill="none" xmlns="http://www.w3.org/2000/svg">
        <path stroke="#7B7B7B" stroke-linecap="round" stroke-linejoin="round" stroke-width="2" d="M18.7 16.3c.3 1 1.1 1.9 2.2 2.2M3.4 22c0-3.9 3.9-7 8.6-7 1 0 2 .2 3 .4M17 7A5 5 0 1 1 7 7a5 5 0 0 1 10 0Zm2.2 8.7-3.5 3.6c-.2.1-.3.4-.3.6l-.2 1.3c0 .5.3.9.7.8l1.4-.2.6-.3 3.5-3.6c.6-.6 1-1.3 0-2.2-.9-.9-1.6-.6-2.2 0Z"/>
    </symbol>
    <symbol id="blueBook-icon" viewBox="0 0 24 24" fill="none" xmlns="http://www.w3.org/2000/svg">
        <path stroke="#3783F5" stroke-linecap="round" stroke-linejoin="round" stroke-width="2" d="M12 5.5v15m-4.3-12H5.5m3 3h-3M22 16.7v-12c0-1.2-1-2.1-2.2-2h0c-2.1.2-5.3 1.2-7.1 2.4h-.2c-.3.2-.7.2-1 0h-.3c-1.8-1.2-5-2.3-7-2.4a2 2 0 0 0-2.2 2v12a2 2 0 0 0 1.7 2H4c2.2.4 5.6 1.4 7.5 2.5h0c.3.2.7.2 1 0 1.9-1 5.3-2.1 7.4-2.4h.4a2 2 0 0 0 1.7-2Z"/>
    </symbol>
    <symbol id="grayBook-icon" viewBox="0 0 24 24" fill="none" xmlns="http://www.w3.org/2000/svg">
        <path stroke="#7B7B7B" stroke-linecap="round" stroke-linejoin="round" stroke-width="2" d="M12 5.5v15m-4.3-12H5.5m3 3h-3M22 16.7v-12c0-1.2-1-2.1-2.2-2h0c-2.1.2-5.3 1.2-7.1 2.4h-.2c-.3.2-.7.2-1 0h-.3c-1.8-1.2-5-2.3-7-2.4a2 2 0 0 0-2.2 2v12a2 2 0 0 0 1.7 2H4c2.2.4 5.6 1.4 7.5 2.5h0c.3.2.7.2 1 0 1.9-1 5.3-2.1 7.4-2.4h.4a2 2 0 0 0 1.7-2Z"/>
    </symbol>
    <symbol id="series-icon" viewBox="0 0 24 24" fill="none" xmlns="http://www.w3.org/2000/svg">
        <path stroke="#7B7B7B" stroke-linecap="round" stroke-linejoin="round" stroke-width="2" d="M12 8.1v9.6M9 22h6c5 0 7-2 7-7V9c0-5-2-7-7-7H9C4 2 2 4 2 9v6c0 5 2 7 7 7Zm9.4-6.7V7.6c0-.8-.6-1.3-1.4-1.3h0a12 12 0 0 0-4.6 1.5h0c-.2.2-.6.2-.7 0h-.2C10.4 7 8.3 6.4 7 6.3c-.8 0-1.4.5-1.4 1.3v7.7c0 .6.5 1.2 1.1 1.2H7c1.4.2 3.5 1 4.8 1.6h.6c1.2-.7 3.4-1.4 4.8-1.5h.2c.6-.1 1-.7 1-1.3Z"/>
    </symbol>
    <symbol id="bookmark-icon" viewBox="0 0 24 24" xmlns="http://www.w3.org/2000/svg">
        <path stroke="#3783F5" stroke-linecap="round" stroke-linejoin="round" stroke-width="2" d="m19 21-7-5-7 5V5a2 2 0 0 1 2-2h10a2 2 0 0 1 2 2v16Z"/>
    </symbol>
    <symbol id="admin-icon" viewBox="0 0 24 24" fill="none" xmlns="http://www.w3.org/2000/svg">
        <path stroke="#3783F5" stroke-linecap="round" stroke-linejoin="round" stroke-width="2" d="M1 21c0-3.87 3.98-7 8.89-7a11 11 0 0 1 3.07.43M15.06 6c0 2.76-2.32 5-5.17 5A5.09 5.09 0 0 1 4.7 6c0-2.76 2.32-5 5.18-5a5.09 5.09 0 0 1 5.17 5Z"/>
        <path fill="#3783F5" stroke="#3783F5" stroke-width=".5" d="M17.2 17.96a.72.72 0 0 0-.4.12.69.69 0 0 0-.26.32.66.66 0 0 0 .2.75v.64c0 .12.04.24.13.33a.48.48 0 0 0 .67 0c.1-.09.14-.2.14-.33v-.64c.11-.09.19-.2.22-.34a.66.66 0 0 0-.03-.41.69.69 0 0 0-.26-.32.72.72 0 0 0-.4-.12Zm2.38-1.84v-.91c0-.6-.25-1.2-.7-1.62a2.41 2.41 0 0 0-3.35 0c-.44.43-.7 1.01-.7 1.62v.91c-.37 0-.73.15-1 .4-.27.27-.42.62-.42.98v3.2c0 .37.15.72.42.98s.63.4 1 .4h4.75c.37 0 .74-.14 1-.4.27-.26.42-.6.42-.97V17.5c0-.36-.15-.71-.42-.97-.26-.26-.63-.4-1-.4Zm-3.8-.91c0-.37.15-.72.42-.97a1.45 1.45 0 0 1 2.01 0c.27.25.42.6.42.97v.91h-2.85v-.91Zm4.27 5.5c0 .12-.05.24-.14.32a.48.48 0 0 1-.33.14h-4.74a.48.48 0 0 1-.34-.14.45.45 0 0 1-.14-.32V17.5c0-.12.05-.24.14-.32a.48.48 0 0 1 .34-.14h4.74c.12 0 .24.05.33.14.1.08.14.2.14.32v3.2Z"/>
    </symbol>
    <symbol id="bookUser-icon" viewBox="0 0 24 24" xmlns="http://www.w3.org/2000/svg" fill="none">
        <path stroke="#3783F5" stroke-linecap="round" stroke-linejoin="round" stroke-width="1.5" d="M5 20.3c0 .4.3.7.8.7h10.6c1.2 0 1.6-.4 1.6-1.6V18M5 20.3A2.3 2.3 0 0 1 7.3 18H18M5 20.3V6.2c0-1.1 0-2.4 1-3C6.6 3 7 3 8.3 3h9.2c1.2 0 1.6.4 1.6 1.6v11.8c0 1-.3 1.4-1 1.6"/>
        <path stroke="#3783F5" stroke-linecap="round" stroke-linejoin="round" stroke-width="1.5" d="M15 14c0-3.9-6-3.9-6 0"/>
        <path stroke="#3783F5" stroke-linecap="round" stroke-linejoin="round" stroke-width="1.5" d="M12 11a2 2 0 1 0 0-4 2 2 0 0 0 0 4Z"/>
    </symbol>
    <symbol id="arrowLeft-icon" viewBox="0 0 24 24" xmlns="http://www.w3.org/2000/svg" fill="none">
        <path stroke="#7B7B7B" stroke-linecap="round" stroke-linejoin="round" stroke-width="2" d="m11 19-7-7m0 0 7-7m-7 7h16"/>
    </symbol>
    <symbol id="arrowRight-icon" viewBox="0 0 24 24" xmlns="http://www.w3.org/2000/svg" fill="none">
        <path stroke="#7B7B7B" stroke-linecap="round" stroke-linejoin="round" stroke-width="2" d="m13 5 7 7m0 0-7 7m7-7H4"/>
    </symbol>
    <symbol id="logout-icon" viewBox="0 0 24 24" fill="none" xmlns="http://www.w3.org/2000/svg">
        <path d="M5 21a2 2 0 0 1-1.4-.6A2 2 0 0 1 3 19V5c0-.5.2-1 .6-1.4A2 2 0 0 1 5 3h6.2c.3 0 .5.1.7.3.2.2.3.4.3.7 0 .3 0 .5-.3.7a1 1 0 0 1-.7.3H5v14h6.2c.3 0 .5.1.7.3.2.2.3.4.3.7 0 .3 0 .5-.3.7a1 1 0 0 1-.7.3H5Zm12.5-8h-7.3a1 1 0 1 1 0-2h7.3l-2-1.9a1 1 0 0 1-.2-.7c0-.2 0-.5.3-.7.2-.2.4-.3.7-.3.3 0 .5.1.7.3l3.7 3.6a1 1 0 0 1 0 1.4L17 16.3a1 1 0 0 1-.7.3 1 1 0 0 1-.7-.4 1 1 0 0 1-.3-.7c0-.2.1-.5.3-.7l1.9-1.8Z" fill="#7B7B7B"/>
    </symbol>
    <symbol id="graySaga-icon" viewBox="0 0 24 24" fill="none" xmlns="http://www.w3.org/2000/svg">
        <path d="M10 3H4a1 1 0 0 0-1 1v16c0 .6.4 1 1 1h6c.6 0 1-.4 1-1V4c0-.6-.4-1-1-1Z" stroke="#7B7B7B" stroke-width="2" stroke-linecap="round" stroke-linejoin="round"/>
        <path d="M7 3v18m13.4-2.1c.2.5-.1 1.1-.6 1.3l-1.9.7c-.5.2-1.1-.1-1.3-.6L11.1 5.1c-.2-.5.1-1.1.6-1.3l1.9-.7c.5-.2 1.1.1 1.3.6l5.5 15.2Z" stroke="#7B7B7B" stroke-width="2" stroke-linecap="round" stroke-linejoin="round"/>
    </symbol>
    <symbol id="grayBook2-icon" viewBox="0 0 24 24" fill="none" xmlns="http://www.w3.org/2000/svg">
        <path d="M6 22a2 2 0 0 1-1.4-.6A2 2 0 0 1 4 20V4c0-.5.2-1 .6-1.4A2 2 0 0 1 6 2h12c.6 0 1 .2 1.4.6.4.4.6.9.6 1.4v16c0 .6-.2 1-.6 1.4a2 2 0 0 1-1.4.6H6Zm5-11 2.5-1.5L16 11V4h-5v7Z" fill="#7B7B7B"/>
    </symbol>
    <symbol id="backBtn-icon" viewBox="0 0 24 24" fill="none" xmlns="http://www.w3.org/2000/svg">
        <path d="m15 18-6-6 6-6" stroke="#7B7B7B" stroke-width="2" stroke-linecap="round" stroke-linejoin="round"/>
    </symbol>
    <symbol id="dots-icon" viewBox="0 0 24 24" fill="none" xmlns="http://www.w3.org/2000/svg">
        <path d="M18 12a3 3 0 1 1 6 0 3 3 0 0 1-6 0Zm-9 0a3 3 0 1 1 6 0 3 3 0 0 1-6 0Zm-9 0a3 3 0 1 1 6 0 3 3 0 0 1-6 0Z" fill="#7B7B7B"/>
    </symbol>
    <symbol id="filter-icon" viewBox="0 0 24 24" fill="none" xmlns="http://www.w3.org/2000/svg">
        <path d="M4.5 7h15M7 12h10m-7 5h4" stroke="#fff" stroke-width="1.5" stroke-linecap="round" stroke-linejoin="round"/>
    </symbol>
    <symbol id="search-icon" viewBox="0 0 24 24" fill="none" xmlns="http://www.w3.org/2000/svg">
        <path fill="#7B7B7B" fill-rule="evenodd" d="M18.68 17.34a10.16 10.16 0 1 0-1.8 1.8l.06.05 5.39 5.4a1.27 1.27 0 1 0 1.8-1.8l-5.4-5.4-.05-.05ZM16.05 5.72A7.62 7.62 0 1 1 5.35 16.6a7.62 7.62 0 0 1 10.7-10.87Z" clip-rule="evenodd"/>
    </symbol>
    <symbol id="image-icon" viewBox="0 0 24 24" fill="none" xmlns="http://www.w3.org/2000/svg">
        <path fill="#DFE4EB" d="M12.003 8.25a2.25 2.25 0 1 1-4.5 0 2.25 2.25 0 0 1 4.5 0Z"/>
        <path fill="#DFE4EB" d="M18 0H6a3 3 0 0 0-3 3v18a3 3 0 0 0 3 3h12a3 3 0 0 0 3-3V3a3 3 0 0 0-3-3ZM4.5 3A1.5 1.5 0 0 1 6 1.5h12A1.5 1.5 0 0 1 19.5 3v12l-3.125-3.124a.75.75 0 0 0-1.14.094L12 16.5l-3.248-1.95a.75.75 0 0 0-.916.114L4.5 18V3Z"/>
    </symbol>
    <symbol id="warning-icon" viewBox="0 0 24 24" fill="none" xmlns="http://www.w3.org/2000/svg" >
        <path fill="#7B7B7B" d="M12 17.9c.3 0 .6-.1.8-.4.3-.2.4-.5.4-.8 0-.3-.1-.6-.4-.8-.2-.3-.5-.4-.8-.4-.3 0-.6.1-.8.4-.3.2-.4.5-.4.8 0 .3.1.6.4.8.2.3.5.4.8.4Zm0-4.7c.3 0 .6-.1.8-.4.3-.2.4-.5.4-.8V7.3c0-.3-.1-.6-.4-.8-.2-.3-.5-.4-.8-.4-.3 0-.6.1-.8.4-.3.2-.4.5-.4.8V12c0 .3.1.6.4.8.2.3.5.4.8.4Zm0 10.6a11.4 11.4 0 0 1-8.3-3.5A11.9 11.9 0 0 1 1.2 7.4a12 12 0 0 1 6.2-6.2 11.5 11.5 0 0 1 13 2.5 12 12 0 0 1 3.4 8.3 11.5 11.5 0 0 1-3.5 8.3 12 12 0 0 1-8.3 3.5Zm0-2.4a9 9 0 0 0 6.7-2.7 9 9 0 0 0 2.7-6.7 9 9 0 0 0-2.7-6.7A9 9 0 0 0 12 2.6a9 9 0 0 0-6.7 2.7A9 9 0 0 0 2.6 12a9 9 0 0 0 2.7 6.7 9 9 0 0 0 6.7 2.7Z"/>
    </symbol>
    <symbol id="redError-icon" viewBox="0 0 24 24" xmlns="http://www.w3.org/2000/svg" fill="none">
        <g clip-path="url(#a)"><rect width="24" height="24" fill="#fff" rx="12"/>
            <path fill="#E72323" d="M12 18c.34 0 .63-.12.86-.35.23-.23.34-.51.34-.85 0-.34-.12-.62-.35-.85a1.16 1.16 0 0 0-.85-.35c-.34 0-.62.12-.85.35-.23.23-.35.51-.35.85 0 .34.11.62.35.86.23.23.51.34.85.34Zm0-4.8c.34 0 .63-.12.86-.35.23-.23.34-.51.34-.85V7.2c0-.34-.12-.62-.35-.85A1.17 1.17 0 0 0 12 6c-.34 0-.62.11-.85.35-.23.23-.35.51-.35.85V12c0 .34.12.63.35.86.23.23.51.34.85.34ZM12 24A12.14 12.14 0 0 1 .95 16.68 11.71 11.71 0 0 1 0 12 12.15 12.15 0 0 1 7.32.95C8.78.32 10.34 0 12 0a12.1 12.1 0 0 1 11.06 7.32c.63 1.46.94 3.02.94 4.68a12.04 12.04 0 0 1-12 12Z"/>
        </g>
        <defs>
            <clipPath id="a">
                <rect width="24" height="24" fill="#fff" rx="12"/>
            </clipPath>
        </defs>
    </symbol>
    <symbol id="roundedGreenCheck-icon" viewBox="0 0 24 24" xmlns="http://www.w3.org/2000/svg" fill="none">
        <rect width="24" height="24" fill="#00BF63" rx="12"/>
        <path fill="#fff" d="M9.6 15.2 18 6.7a1 1 0 0 1 1.4 0c.2.2.3.4.3.7 0 .3 0 .5-.3.7l-9.1 9.2a1 1 0 0 1-1.4 0L4.6 13a1 1 0 0 1-.3-.7c0-.3 0-.5.3-.7.2-.2.4-.3.7-.3.3 0 .5 0 .7.3l3.6 3.6Z"/>
    </symbol>
    <symbol id="greenCheck-icon" viewBox="0 0 24 24" xmlns="http://www.w3.org/2000/svg" fill="none">
        <path fill="#00BF63" d="M9.6 15.2 18 6.7a1 1 0 0 1 1.4 0c.2.2.3.4.3.7 0 .3 0 .5-.3.7l-9.1 9.2a1 1 0 0 1-1.4 0L4.6 13a1 1 0 0 1-.3-.7c0-.3 0-.5.3-.7.2-.2.4-.3.7-.3.3 0 .5 0 .7.3l3.6 3.6Z"/>
    </symbol>
    <symbol id="redCross-icon" viewBox="0 0 24 24" xmlns="http://www.w3.org/2000/svg" fill="none">
        <path stroke="#E72323" stroke-linecap="round" stroke-linejoin="round" stroke-width="1.5" d="M19.2 4.8 4.8 19.2m0-14.4 14.4 14.4"/>
    </symbol>
    <symbol id="info-icon" viewBox="0 0 24 24" xmlns="http://www.w3.org/2000/svg" fill="none">
        <circle cx="12.52" cy="11.48" r="9.39" fill="#7B7B7B"/>
        <path fill="#BDE1FF" d="M12 18c.34 0 .63-.12.86-.35.23-.23.34-.51.34-.85V12c0-.34-.12-.62-.35-.85a1.17 1.17 0 0 0-.85-.35c-.34 0-.62.11-.85.35-.23.23-.35.51-.35.85v4.8c0 .34.12.63.35.86.23.23.51.34.85.34Zm0-9.6c.34 0 .63-.12.86-.35.23-.23.34-.51.34-.85 0-.34-.12-.62-.35-.85A1.16 1.16 0 0 0 12 6c-.34 0-.62.12-.85.35-.23.23-.35.51-.35.85 0 .34.11.62.35.86.23.23.51.34.85.34ZM12 24A12.14 12.14 0 0 1 .95 16.68 11.71 11.71 0 0 1 0 12 12.15 12.15 0 0 1 7.32.95C8.78.32 10.34 0 12 0a12.1 12.1 0 0 1 11.06 7.32c.63 1.46.94 3.02.94 4.68a12.04 12.04 0 0 1-12 12Z"/>
    </symbol>
    <symbol id="lightGray-icon" viewBox="0 0 24 24" xmlns="http://www.w3.org/2000/svg" fill="none">
        <circle cx="12.52" cy="11.48" r="9.39" fill="#fff"/>
        <path fill="#ccc" d="M12 18c.34 0 .63-.12.86-.35.23-.23.34-.51.34-.85V12c0-.34-.12-.62-.35-.85a1.17 1.17 0 0 0-.85-.35c-.34 0-.62.11-.85.35-.23.23-.35.51-.35.85v4.8c0 .34.12.63.35.86.23.23.51.34.85.34Zm0-9.6c.34 0 .63-.12.86-.35.23-.23.34-.51.34-.85 0-.34-.12-.62-.35-.85A1.16 1.16 0 0 0 12 6c-.34 0-.62.12-.85.35-.23.23-.35.51-.35.85 0 .34.11.62.35.86.23.23.51.34.85.34ZM12 24A12.14 12.14 0 0 1 .95 16.68 11.71 11.71 0 0 1 0 12 12.15 12.15 0 0 1 7.32.95C8.78.32 10.34 0 12 0a12.1 12.1 0 0 1 11.06 7.32c.63 1.46.94 3.02.94 4.68a12.04 12.04 0 0 1-12 12Z"/>
    </symbol>
    <symbol id="blueEye-icon" viewBox="0 0 24 24" xmlns="http://www.w3.org/2000/svg" fill="none">
        <path fill="#3783F5" fill-rule="evenodd" d="M7.5 12a4.5 4.5 0 1 1 9 0 4.5 4.5 0 0 1-9 0ZM12 9.3a2.7 2.7 0 1 0 0 5.4 2.7 2.7 0 0 0 0-5.4Z" clip-rule="evenodd"/>
        <path fill="#3783F5" fill-rule="evenodd" d="M2.79 10.38c-.5.72-.69 1.29-.69 1.62 0 .33.18.9.69 1.62A11.85 11.85 0 0 0 12 18.3a11.85 11.85 0 0 0 9.21-4.68c.5-.72.69-1.29.69-1.62 0-.33-.18-.9-.69-1.62A11.85 11.85 0 0 0 12 5.7a11.85 11.85 0 0 0-9.21 4.68Zm1.02-3.6A13.66 13.66 0 0 1 12 3.9a13.65 13.65 0 0 1 10.7 5.45c.58.85 1 1.78 1 2.65 0 .87-.42 1.8-1 2.65A13.65 13.65 0 0 1 12 20.1a13.65 13.65 0 0 1-10.7-5.45C.73 13.8.3 12.87.3 12c0-.87.42-1.8 1-2.65.62-.88 1.48-1.76 2.51-2.56Z" clip-rule="evenodd"/>
    </symbol>
    <symbol id="blueClosedEye-icon" viewBox="0 0 24 24" xmlns="http://www.w3.org/2000/svg" fill="none">
        <path fill="#3783F5" fill-rule="evenodd" d="M22.24 3.04a.9.9 0 0 0-1.28-1.28l-19.2 19.2a.9.9 0 1 0 1.28 1.28l3.41-3.42c1.64.77 3.53 1.28 5.55 1.28a13.65 13.65 0 0 0 10.7-5.45 4.9 4.9 0 0 0 1-2.65c0-.87-.42-1.8-1-2.65a11.87 11.87 0 0 0-3.51-3.26l3.05-3.05Zm-4.36 4.35-2.13 2.13a4.5 4.5 0 0 1-6.23 6.23l-1.7 1.7c1.32.55 2.74.84 4.18.85a11.85 11.85 0 0 0 9.21-4.68c.5-.72.69-1.29.69-1.62 0-.33-.18-.9-.69-1.62A10.1 10.1 0 0 0 19.1 8.2c-.38-.28-.78-.56-1.21-.82Zm-7.05 7.05a2.7 2.7 0 0 0 3.6-3.6l-3.6 3.6Z" clip-rule="evenodd"/>
        <path fill="#3783F5" d="M12 3.9c1.24 0 2.43.2 3.54.52a.3.3 0 0 1 .12.49l-.99.99a.3.3 0 0 1-.28.08A10.8 10.8 0 0 0 12 5.7a11.85 11.85 0 0 0-9.21 4.68c-.5.72-.69 1.29-.69 1.62 0 .33.18.9.69 1.62a9.7 9.7 0 0 0 1.78 1.9.3.3 0 0 1 .03.45l-.85.85a.3.3 0 0 1-.4.02 11.4 11.4 0 0 1-2.04-2.19C.72 13.8.3 12.87.3 12c0-.87.42-1.8 1-2.65A13.66 13.66 0 0 1 12 3.9Z"/>
        <path fill="#3783F5" d="M12 7.5c.14 0 .28 0 .42.02.24.02.32.3.16.47l-1.46 1.46a2.71 2.71 0 0 0-1.67 1.67l-1.46 1.46c-.17.16-.45.08-.47-.16A4.5 4.5 0 0 1 12 7.5Z"/>
    </symbol>
    <symbol id="whiteEye-icon" viewBox="0 0 24 24" xmlns="http://www.w3.org/2000/svg" fill="none">
        <path fill="#fff" fill-rule="evenodd" d="M7.5 12a4.5 4.5 0 1 1 9 0 4.5 4.5 0 0 1-9 0ZM12 9.3a2.7 2.7 0 1 0 0 5.4 2.7 2.7 0 0 0 0-5.4Z" clip-rule="evenodd"/>
        <path fill="#fff" fill-rule="evenodd" d="M2.79 10.38c-.5.72-.69 1.29-.69 1.62 0 .33.18.9.69 1.62A11.85 11.85 0 0 0 12 18.3a11.85 11.85 0 0 0 9.21-4.68c.5-.72.69-1.29.69-1.62 0-.33-.18-.9-.69-1.62A11.85 11.85 0 0 0 12 5.7a11.85 11.85 0 0 0-9.21 4.68Zm1.02-3.6A13.66 13.66 0 0 1 12 3.9a13.65 13.65 0 0 1 10.7 5.45c.58.85 1 1.78 1 2.65 0 .87-.42 1.8-1 2.65A13.65 13.65 0 0 1 12 20.1a13.65 13.65 0 0 1-10.7-5.45C.73 13.8.3 12.87.3 12c0-.87.42-1.8 1-2.65.62-.88 1.48-1.76 2.51-2.56Z" clip-rule="evenodd"/>
    </symbol>
    <symbol id="whiteClosedEye-icon" viewBox="0 0 24 24" xmlns="http://www.w3.org/2000/svg" fill="none">
        <path fill="#fff" fill-rule="evenodd" d="M22.24 3.04a.9.9 0 0 0-1.28-1.28l-19.2 19.2a.9.9 0 1 0 1.28 1.28l3.41-3.42c1.64.77 3.53 1.28 5.55 1.28a13.65 13.65 0 0 0 10.7-5.45 4.9 4.9 0 0 0 1-2.65c0-.87-.42-1.8-1-2.65a11.87 11.87 0 0 0-3.51-3.26l3.05-3.05Zm-4.36 4.35-2.13 2.13a4.5 4.5 0 0 1-6.23 6.23l-1.7 1.7c1.32.55 2.74.84 4.18.85a11.85 11.85 0 0 0 9.21-4.68c.5-.72.69-1.29.69-1.62 0-.33-.18-.9-.69-1.62A10.1 10.1 0 0 0 19.1 8.2c-.38-.28-.78-.56-1.21-.82Zm-7.05 7.05a2.7 2.7 0 0 0 3.6-3.6l-3.6 3.6Z" clip-rule="evenodd"/>
        <path fill="#fff" d="M12 3.9c1.24 0 2.43.2 3.54.52a.3.3 0 0 1 .12.49l-.99.99a.3.3 0 0 1-.28.08A10.8 10.8 0 0 0 12 5.7a11.85 11.85 0 0 0-9.21 4.68c-.5.72-.69 1.29-.69 1.62 0 .33.18.9.69 1.62a9.7 9.7 0 0 0 1.78 1.9.3.3 0 0 1 .03.45l-.85.85a.3.3 0 0 1-.4.02 11.4 11.4 0 0 1-2.04-2.19C.72 13.8.3 12.87.3 12c0-.87.42-1.8 1-2.65A13.66 13.66 0 0 1 12 3.9Z"/>
        <path fill="#fff" d="M12 7.5c.14 0 .28 0 .42.02.24.02.32.3.16.47l-1.46 1.46a2.71 2.71 0 0 0-1.67 1.67l-1.46 1.46c-.17.16-.45.08-.47-.16A4.5 4.5 0 0 1 12 7.5Z"/>
    </symbol>
    <symbol id="mailSent-icon" viewBox="0 0 24 24" xmlns="http://www.w3.org/2000/svg" fill="none">
        <path fill="#3783F5" d="M4.135 10.364H1.953a1.091 1.091 0 0 0 0 2.181h2.182a1.09 1.09 0 1 0 0-2.181ZM22.44 7.265V7.2A3.273 3.273 0 0 0 19.855 6h-8.651a3.273 3.273 0 0 0-2.182.807 3.196 3.196 0 0 0-1.047 1.92l-.96 5.455a3.272 3.272 0 0 0 1.84 3.532c.431.202.901.307 1.378.308h8.662a3.273 3.273 0 0 0 3.272-2.706l.96-5.454a3.272 3.272 0 0 0-.687-2.597Zm-2.99.917-3.708 3.01a1.09 1.09 0 0 1-1.506-.13l-2.542-2.88h7.757Zm.524 6.73a1.09 1.09 0 0 1-1.09.906h-8.651a1.092 1.092 0 0 1-1.07-1.276l.873-4.942 2.564 2.902a3.273 3.273 0 0 0 4.516.382l3.753-3.066-.895 5.095ZM5.225 6H1.953a1.09 1.09 0 1 0 0 2.182h3.272a1.09 1.09 0 1 0 0-2.182Z"/>
    </symbol>
    <symbol id="grayCross-icon" viewBox="0 0 24 24" xmlns="http://www.w3.org/2000/svg" fill="none">
        <path fill="#8D8D8D" fill-rule="evenodd" d="M18.851 6.451a.919.919 0 0 0-.298-1.501.92.92 0 0 0-1.003.199L12 10.699 6.45 5.15A.921.921 0 0 0 5.149 6.45L10.699 12l-5.55 5.549A.92.92 0 1 0 6.45 18.85L12 13.301l5.55 5.55a.92.92 0 0 0 1.301-1.302L13.301 12l5.55-5.549Z" clip-rule="evenodd"/>
    </symbol>
    <svg id="loading-icon" viewBox="0 0 24 24" xmlns="http://www.w3.org/2000/svg" fill="none">
        <path fill="#3783F5" d="M12 4V2A10 10 0 0 0 2 12h2a8 8 0 0 1 8-8Z"/>
    </svg>
</svg>