<svg xmlns="http://www.w3.org/2000/svg" width="24" height="24" fill="none"><circle cx="12.52" cy="11.48" r="9.39" fill="#7B7B7B"/><path fill="#BDE1FF" d="M12 18c.34 0 .63-.12.86-.35.23-.23.34-.51.34-.85V12c0-.34-.12-.62-.35-.85a1.17 1.17 0 0 0-.85-.35c-.34 0-.62.11-.85.35-.23.23-.35.51-.35.85v4.8c0 .34.12.63.35.86.23.23.51.34.85.34Zm0-9.6c.34 0 .63-.12.86-.35.23-.23.34-.51.34-.85 0-.34-.12-.62-.35-.85A1.16 1.16 0 0 0 12 6c-.34 0-.62.12-.85.35-.23.23-.35.51-.35.85 0 .34.11.62.35.86.23.23.51.34.85.34ZM12 24A12.14 12.14 0 0 1 .95 16.68 11.71 11.71 0 0 1 0 12 12.15 12.15 0 0 1 7.32.95C8.78.32 10.34 0 12 0a12.1 12.1 0 0 1 11.06 7.32c.63 1.46.94 3.02.94 4.68a12.04 12.04 0 0 1-12 12Z"/></svg>