<svg width="24" height="24" fill="none" xmlns="http://www.w3.org/2000/svg"><path d="M5 21a2 2 0 0 1-1.4-.6A2 2 0 0 1 3 19V5c0-.5.2-1 .6-1.4A2 2 0 0 1 5 3h6.2c.3 0 .5.1.7.3.2.2.3.4.3.7 0 .3 0 .5-.3.7a1 1 0 0 1-.7.3H5v14h6.2c.3 0 .5.1.7.3.2.2.3.4.3.7 0 .3 0 .5-.3.7a1 1 0 0 1-.7.3H5Zm12.5-8h-7.3a1 1 0 1 1 0-2h7.3l-2-1.9a1 1 0 0 1-.2-.7c0-.2 0-.5.3-.7.2-.2.4-.3.7-.3.3 0 .5.1.7.3l3.7 3.6a1 1 0 0 1 0 1.4L17 16.3a1 1 0 0 1-.7.3 1 1 0 0 1-.7-.4 1 1 0 0 1-.3-.7c0-.2.1-.5.3-.7l1.9-1.8Z" fill="#7B7B7B"/></svg>