<svg xmlns="http://www.w3.org/2000/svg" width="24" height="24" fill="none"><path fill="#3783F5" d="M4.135 10.364H1.953a1.091 1.091 0 0 0 0 2.181h2.182a1.09 1.09 0 1 0 0-2.181ZM22.44 7.265V7.2A3.273 3.273 0 0 0 19.855 6h-8.651a3.273 3.273 0 0 0-2.182.807 3.196 3.196 0 0 0-1.047 1.92l-.96 5.455a3.272 3.272 0 0 0 1.84 3.532c.431.202.901.307 1.378.308h8.662a3.273 3.273 0 0 0 3.272-2.706l.96-5.454a3.272 3.272 0 0 0-.687-2.597Zm-2.99.917-3.708 3.01a1.09 1.09 0 0 1-1.506-.13l-2.542-2.88h7.757Zm.524 6.73a1.09 1.09 0 0 1-1.09.906h-8.651a1.092 1.092 0 0 1-1.07-1.276l.873-4.942 2.564 2.902a3.273 3.273 0 0 0 4.516.382l3.753-3.066-.895 5.095ZM5.225 6H1.953a1.09 1.09 0 1 0 0 2.182h3.272a1.09 1.09 0 1 0 0-2.182Z"/></svg>