<svg id="pdf-icon" viewBox="0 0 24 24" fill="none" xmlns="http://www.w3.org/2000/svg">
    <g clip-path="url(#a)">
        <path fill="#E72323" fill-rule="evenodd" d="M2.5.8C2.9.3 3.6 0 4.3 0h10.3c.2 0 .4 0 .6.3L22 7l.3.6v13.7a2.6 2.6 0 0 1-2.6 2.6H4.3a2.6 2.6 0 0 1-2.6-2.6V2.6c0-.7.3-1.4.8-1.8Zm8 5 .1 2.2c1.2 1.8 3.1 4.2 4.7 5.7h2c.4.2.9.4 1.2.8.3.5.3 1 .1 1.5-.1.5-.5.9-1 1h-1.3l-1.7-1.1c-1.7.2-3.9.8-5.4 1.4-.3.6-.5 1.2-.9 1.6a2 2 0 0 1-1 .7c-.5.2-1 0-1.4-.3-.3-.3-.6-.8-.6-1.4 0-.5.3-.9.6-1.1.3-.4.9-.8 1.5-1 .6-2 1-5 1-7.3l-.8-1.8c-.1-.3-.2-.7-.1-1.1 0-.4.3-1 .8-1.2.2 0 .5-.2.9-.1.3 0 .6.3.7.4l.5 1Zm-.1 5.6 2.3 2.7c-1 .1-2 .4-2.9.7.3-1 .5-2.3.6-3.4Z" clip-rule="evenodd"/>
    </g>
    <defs>
        <clipPath id="a">
            <path fill="#fff" d="M0 0h24v24H0z"/>
        </clipPath>
    </defs>
</svg>