<svg xmlns="http://www.w3.org/2000/svg" width="24" height="24" fill="none"><path fill="#7B7B7B" d="M12 17.9c.3 0 .6-.1.8-.4.3-.2.4-.5.4-.8 0-.3-.1-.6-.4-.8-.2-.3-.5-.4-.8-.4-.3 0-.6.1-.8.4-.3.2-.4.5-.4.8 0 .3.1.6.4.8.2.3.5.4.8.4Zm0-4.7c.3 0 .6-.1.8-.4.3-.2.4-.5.4-.8V7.3c0-.3-.1-.6-.4-.8-.2-.3-.5-.4-.8-.4-.3 0-.6.1-.8.4-.3.2-.4.5-.4.8V12c0 .3.1.6.4.8.2.3.5.4.8.4Zm0 10.6a11.4 11.4 0 0 1-8.3-3.5A11.9 11.9 0 0 1 1.2 7.4a12 12 0 0 1 6.2-6.2 11.5 11.5 0 0 1 13 2.5 12 12 0 0 1 3.4 8.3 11.5 11.5 0 0 1-3.5 8.3 12 12 0 0 1-8.3 3.5Zm0-2.4a9 9 0 0 0 6.7-2.7 9 9 0 0 0 2.7-6.7 9 9 0 0 0-2.7-6.7A9 9 0 0 0 12 2.6a9 9 0 0 0-6.7 2.7A9 9 0 0 0 2.6 12a9 9 0 0 0 2.7 6.7 9 9 0 0 0 6.7 2.7Z"/></svg>